<mxfile host="app.diagrams.net" agent="Mozilla/5.0 (X11; Linux x86_64) AppleWebKit/537.36 (KHTML, like Gecko) Chrome/131.0.0.0 Safari/537.36" version="26.0.2">
  <diagram name="PÃ¡gina-1" id="eGXeKf5tvGr_kJZ-Ue_N">
    <mxGraphModel dx="1434" dy="788" grid="1" gridSize="10" guides="1" tooltips="1" connect="1" arrows="1" fold="1" page="1" pageScale="1" pageWidth="827" pageHeight="1169" math="0" shadow="0">
      <root>
        <mxCell id="0" />
        <mxCell id="1" parent="0" />
        <mxCell id="DNTRqTkwEnmL52qoKm-J-5" value="" style="shape=image;verticalLabelPosition=bottom;labelBackgroundColor=default;verticalAlign=top;aspect=fixed;imageAspect=0;image=data:image/jpeg,/9j/4AAQSkZJRgABAQAAAQABAAD/2wBDAAgGBgcGBQgHBwcJCQgKDBQNDAsLDBkSEw8UHRofHh0aHBwgJC4nICIsIxwcKDcpLDAxNDQ0Hyc5PTgyPC4zNDL/2wBDAQkJCQwLDBgNDRgyIRwhMjIyMjIyMjIyMjIyMjIyMjIyMjIyMjIyMjIyMjIyMjIyMjIyMjIyMjIyMjIyMjIyMjL/wAARCAIAAgADASIAAhEBAxEB/8QAHwAAAQUBAQEBAQEAAAAAAAAAAAECAwQFBgcICQoL/8QAtRAAAgEDAwIEAwUFBAQAAAF9AQIDAAQRBRIhMUEGE1FhByJxFDKBkaEII0KxwRVS0fAkM2JyggkKFhcYGRolJicoKSo0NTY3ODk6Q0RFRkdISUpTVFVWV1hZWmNkZWZnaGlqc3R1dnd4eXqDhIWGh4iJipKTlJWWl5iZmqKjpKWmp6ipqrKztLW2t7i5usLDxMXGx8jJytLT1NXW19jZ2uHi4+Tl5ufo6erx8vP09fb3+Pn6/8QAHwEAAwEBAQEBAQEBAQAAAAAAAAECAwQFBgcICQoL/8QAtREAAgECBAQDBAcFBAQAAQJ3AAECAxEEBSExBhJBUQdhcRMiMoEIFEKRobHBCSMzUvAVYnLRChYkNOEl8RcYGRomJygpKjU2Nzg5OkNERUZHSElKU1RVVldYWVpjZGVmZ2hpanN0dXZ3eHl6goOEhYaHiImKkpOUlZaXmJmaoqOkpaanqKmqsrO0tba3uLm6wsPExcbHyMnK0tPU1dbX2Nna4uPk5ebn6Onq8vP09fb3+Pn6/9oADAMBAAIRAxEAPwD3+iiigAooooAKKKKACiiigAooooAKKKKACiiigAooooAKKKKACiiigAoqhFrekzX5sItUspLwMym3S4QyAjORtznIwc/Sr9FwKup3y6ZpV5fuhdbWB5ioOCwVScfpWR4I1ifX/ClrqV1NHJcTNIZBGABH87YTA6YGBzz61vyRpLG0ciK6OCrKwyCD1BFeUeNfB194V0ptV8G32p2cMcnmXNjBcMY1XHMgGc8YGQc8HsFqJNp3Lik9D1mivDdA+NepWwji1u0jvYwQGnhxHLjPJx91iB2G3tzXpmh/EDw1r6oLbU4oZ2IAt7kiKTJ4AAPDH/dJojUiwlTlE6aiiirICiiigAooooAKKKKACiiigAooooAKKKKACiiigAooooAKKKKACiiigAooooAKKKKACiiigAooooAKKKKACiiigAooooAKKKKACiiigAooooAKKKKACiiigAooooAKKKKACiiigAooooAKKKKACiiigD5p8UWOs6F4pup74SxXbXDzxXMfyCTLE70I6dc4zkdK09N+KnimwAWS6hvEVAgS6hBx05yu1ieDySete563olj4g0uXT9Qi3xOOGGN0bYwGU9iM/wBDkEivnXxX4V1DwpqhtrtfMgckwXAHyyr7ejDjI7fQgnlnCUHdHTGSmrM7ix+NtwsYW/0aKSTdy8ExQAf7pDe/eus0T4paBrurwabDFeQTznahuERVzgnGQx5OMD3Ir56ba+cHB9KdZX09heW97bvsnt5FljYjIDA5H1/GlGrJDdKLO9+K/glNE1L+2rGNU0+9kxIgb/VzkEnA/usAT7HPTivOFIBKkZ969jtvihpPiLwxdaP4kjNvdXMTwmaODdFkj5WwSSCDg+gI6jt45KohuHjEiuFYjepyGolZvQcG7WZuaL4q1zQGT+ztUuIkXnyd26M8YPyHK/jjNek6H8agSsWt6d9Z7Q9Pqh9+4P4V4wWwccZPanrJkjr9KSco7MJRTPrTSdZ0/XbFb3TLpLi3YldygggjsQcEH2Iq9XyvoviPVvD8/n6XeyQM330HKP8A7yng9/8A61et+Fvi9ZagUttejjsbgnAnQnyW+ueV7dyPcVtGqnozCVNrY9NoqG2u7a9gWe0uIp4W+7JE4ZT9COKmrYzCiiigAooqjrV7JpuhajfRKrSW1tJMgYcEqpIz7cUAQav4k0fQjGupX0cMkhASMAu7ZzghFBbHGM4xVjTtR/tG2M62d3brvKhbmLy2OO+08gfXFc14B0TbpaeINTH2nWdR/fvcy4ZlQ/dVf7o24OBjrjoAB2VTFt6sppLQq3Wo2dhF5t7cxWsfd53CKPxPFS211b3tutxazxTwv92SJwyn6EcVIyq6lWAZSMEEZBFcH4hsk8EXkXiTR4zBZPKkWp2cMY8poyceYqgjDDpx1JHq24k2tQSvod7RUVtcRXdrDcwOHhmQSRsP4lIyD+VS1RIUUUUAFFFFABRRRQAUUUUAFFFFABRRRQAUUUUAFFFFABRRRQAUUUUAFFFFABRRRQAUUUUAFFFFABRRRQAUUUUAFFFFABRRRQAUUUUAFFFFABRRRQAVT1TSbDWrFrPUbWO4gbna46HGMg9QeTyOeauUUAeCeMPhPqej77vRRJqVlx+7Vczx8+g++OnI556YGa813MrdK+xa4bxp8NNL8TwTXNpHHZatgsk6jCSNycSAdck8tjd064xWMqXY3jV6SPnMuCcbttPIUjgEH1FdRcfC3xpBG8h0VmVFJPlzxMSPYBsn6AVzF7ZXuk3At9QtLi0mI3CO4jaMkZIyA3UZB56Vi4tGqaex3fgDwr4X8WM9rfXl5BqC4ZYklUeaMc7cp29OvPoM1Z8c/CyXw3Zzatpt0bjTo8eYkpAkiB4zngMM49Dz0PJrzeOZd6k5DDkMvUVsT+MvESaNJpcGr3M1m42yRPiQBcYxlgSB/sgge1NNWs0J3ve5kJKBxnNSh8jj1rINzL3wfbFSxSTuMrEW9wOKbiLmubNnqN5ptx59ldz2spGA8MhQ/QkHpXS6H428Uabefal1KZ4SR5v2xjIj9M8E8scdju/CuNiMw/1tpIV9pAP5ippbie4kUyROAqhFUDIVR0HU1D02HY930P4yaJfN5OqRy2EoOBLgvGw9ePmUnnjBA9TXoVreW19brcWlxFcQt92SJwyn8RXyGU7kFT7ir2la9qvh+4+0aZezW7552N8rdOCOh6dxWsarW+pnKkuh9aVXv7OPUdOurGYsIrmF4XKnBCsCDj35ryHw/wDG8gRQa/YbuzXVr16DkoepzySCPYV6tpGuaXr1r9p0u+huoh97YeV/3lPK/iBWqnGWhk4uJzvgrUrixU+FdZIj1OxXEGfu3FuPuuh745GPQeoOOyrG8QeG7PX4ELk299CQ9texAeZC45BB7jPVeh+uCL+nQXdtYRRX14Ly5XO+cRCPfycfKOBxgfhTimtAlZ6lqsnxQM+EtZHrYz/+i2rWrK8T/wDIp6x/14zf+gGnLYUdyt4Ku1vPBekSouAtssX/AHx8mf8Ax2t6sbwjbxW3g/R44kCKbSNyB/eZQzH8SSa2aI7IJbsKKKKYgooooAKKKKACiiigAooooAKKKKACiiigAooooAKKKKACiiigAooooAKKKKACiiigAooooAKKKKACiiigAooooAKKKKACiiigAooooAKKKKACiiigAooooAKhurW3vbZ7a7t4riB/vxSoHVu/IPBqaigDjNX+FXg/VxITpS2crgDzLJjFtx6IPk/NTXDav8ELy2jkk0LVI5wCSlvcpsO0dBvGQW6D7qj3Fe2UVLhFlqpJHyT4h8Lapokwi1awls5jwsjKDHJwDw65B6jofrXOkSISpz+dfWHjjwk/izSBbwX0lpcxEtGd7eW/B+V1Bxg8c4JH5g/PPibwZrXhm42alZGOIttjuE+aKTrjDduhODg47CsXFxeuxtFqS8zlMZ96Xp1FSPEVPTn1pPLbjjNPQVhUnlThJWHtmpVvT0mQH/aTg1Xxj2ppBJ9aXKmO7ReB3DfC+9fTuPwqW2vZ7S4SeCZ4Z0YFJI2KspB6jH0rMCsp3cj6VYS8JbbMNy9Nw+9/9epcbFJp7nqvhv4z6vp7x2+tQrqFqMKZl+SZRx36NxnqASTy1ew6B4t0TxNAsmmX0ckhGWgc7ZU4GcqeeM9RkehNfJzADDI2UYZFSW1zLbXEU9vI8M0TB0dTgqwOQR/ntVRm0RKmmfZFcf8AEgXNx4cttMtjGr6lfQ2hZ84GSWB491H4ZrivCHxlfeln4nUFWIVb2JAMEn+NRxjB6r0x0PWuj8eXYm17wS9vcB7WXUFk3I+Uf54trccHgnB9zVymnF2IjFqSud7a20VlaQ2sC7IYY1jjXOcKBgD8hUtFFamQUUUUAFFFFABRRRQAUUUUAFFFFABRRRQAUUUUAFFFFABRRRQAUUUUAFFFFABRRRQAUUUUAFFFFABRRRQAUUUUAFFFFABRRRQAUUUUAFFFFABRRRQAUUUUAFFFFABRRRQAUUUUAFV76xtdTsZrK9gSe2mXbJG4yGH+e/arFc14m8e+HvCaldRvQ10BkWkHzyn8P4evViAaTt1Gr9DKvfhD4PuogsVlPaMDnzIbhycemHLDH4dq4TxP8HpNHs5b7TtSjngQ5MU6bHVc8YYZDHn0FUvEfxp1rWxLY6BZnT4ZAUEoJkuCMkZBHCHBHTJB6NWdYeAviB4yjgfUbq8+yHlJNTunYKCM5Ckk88dB6VjLleiNoua1bOR1G2fTGC3MWGboMg7hWU8pd8pGqewGa990f4EaTazrJqupz36Ag+UieSp9ick4+hBrp7r4XeDptPFkmlJa5fck0LkShsdmOc8DocjqcUo05Jag6ibPlxftD9Afypxt5eroCPXB/pXbePPD9p4P186fb3jzgoJFBCllUk4DEH73HpyMHviuT+1JnlT9RUXfY0su5Sj8xFaMN8v3ueppyy54yKsF4ZM5Q/XFM8hfmMJVl6lTwad+4WHIzD6GtXTtQe2Ko8zeTGS6gfwvx8w9+BWRGVJ+RsH+63Wpo25+ZcHOM0pK407H1xomt2HiHS4tQ064WaFxg4PKNjlWHZhnpWjXzJ4G8Y3Pg/VWmVDPZTAJPDuPIyPmA/vDn8yPcfSWnahbarp0F/ZyiW3nQOjD09D6EdCOxFbwnzepzThyss0UUVoQFFFFABRRRQAUUUUAFFFFABRRRQAUUUUAFFFFABRRRQAUUUUAFFFFABRRRQAUUUUAFFFFABRRRQAUUUUAFFFFABRRRQAUUUUAFFFFABRRRQAUUUUAFFFFABRRRQAUVl6v4k0XQELapqdtbEKH8t3zIVzjIQfMefQdjXkPjb4xy6hayWHhdbi2Vjte+YhWZcMCFXBK5+Uhshh6Cpc0ilFs3PiR8SZbOSbw74afzNRwRdXSHi3HQqDnhh3Y8L9c7fGxDYR3D3GrXs15dO5eVYSW3MSSS0jY3ZPUjvWfH8sZHPPWkYEdeK55Nye50xioo6e18dDR3ibSNJtIBGQwEg8zJB6n36cj0qfUfi/4x1AuFv0s4nGDHawquPoxyw/OuMK9800pnoKIpLRA9dWaGoeJNb1aLyL/AFW/uoQdwjnuGdc+uCcdzWarSDkADtThGM/MKQjHQD8KegajiWcAYX8KTZjqcfjQFcD7uKklKuylpHZtuDkYA+nNAEZ4HrTfmDhlJz1wBXqnwv8AhnB4hibWNchkOmglLeDJTzz3YkHO0dBjqR6Dn2yy8OaLp1sLe10q0jj8j7Of3QJaPurE8sD3yTnvVqLepEppOx8pvoepwQQXl5Z3ENtcpvhldCEkB7qen+feqpjMEo3L8h4zX2QkaRRLFGipGqhVRRgADoAPSuR8Q/DXw9rsD7LVLC5KkLNaqFGecbk+63Jyeh46ilKnLoJVV1Pm2NMq0iyAIB1Y4r1v4J61df2he6GzK1qYWu145VwyKcH0II/IeprzfxH4dvvCWsPp1+gYbcqy5Kup7qSBn0/Oup+Dl9a6b4rubi8njhtms3j82Vgqq25SMseAMIf0qIuz1Lmm0fQ1UdT1nTdGg87Ur6C1QhivmuAXwMkKOrH2GTXNXGq614vsJo/DSHT7FzsGqXPytIMkEwoATgjGHOO+BkZqppvwm0WGR7jV57nVrqQlpHlcorMTndgHdn6sa3cm/hRhypfExbz4t6Ak4ttNgvtTndf3Qt4CoZz0X5sN1xyFPXvS2viLx1rUiNYeGLbTYOQz6nI3B69BtbHQfdP1rs7HTrLTIPIsLSC1iJ3FIYwgJ9cDvwKs0csnuw5orZHH/wDCOeKdS2nVfFb28TEs9tpkAi2nsFlPzY6dQf60yf4badeMXvNX1m6fZs3z3KuQPTJWuzoo5I9Rc7OJHgjVtKiH/CPeK7+DZGVSC9Czxk9gBgBR7hSarRePr/QtVGneMtPSzEjMIb62VjC+MY45PfrnIyMqK7+szxBoVn4j0afTbxFKSKdjlcmJ8HDj3Gfx5HQmk4NfCNST+I0IpY54klidZI3UMrochgehB7inEhQSSABySa81+FeqTWs2q+E7yQyz6dM5jcEldobYyjPQbhkf7xqt8VfGhgjl8Nac7rMyj7bKvRUI/wBWPUsCCfbjnJwvapQ5mNU25cqKWr/EvVNc1+PSvDTLb27XCRR3BQM8p3YzzwEJI4xnjkjOK9hrxz4UeFQ922rXETKISDHleC3sfb+or2OlRcpJyfUqsop8segUUUVsYhRRRQAUUUUAFFFFABRRRQAUUUUAFFFFABRRRQAUUUUAFFFFABRRRQAUUUUAFFFFABRRRQAUUUUAFFFFABRRXlvjb4u2umrJYeHmS6uypVrvrHCc4+UdHPf+70+9yKmUlHccYuWx3uueJNI8NwRTaverbJK22MbWdmPfCqCcDucYGR61wviz4vaTb6S0Xh25+038wKrIYmVYB/eIcDLc8Dpnr6Hw+/1C71S7kvL64luZ5G+aSUliTjp9PboOOlVPl9yc9KxdSTN1SS3JbueS6mlllkaWWVi0js25mJ6kn1qJSVXAGKcA5H3eKQx7gBuFQaDB65pfp3/WneUq5/ioGQM+Xt96ADZ3IGPekVRzwPyqVTuHICg8FjyaV4o1Uln/ABNK47DrT7KZyLnzPK2n/VICWPpz0+tRXHk+ezRpsXPyrncQPrSSMAAIxx9KbgYyxwR2ppdQGMWOeu09M1a0iGzk1ewTUDtsWuY1uGHaIsNx/LPvVc59Sfxrb0bwd4g11rf7BpV28E33J2jKxEZ5O84GBj17celMD6sgiigt44oESOFFCxpGAFVQMAADgDFSVgeDtDvvDvhyDTb/AFE30kX3G24ES4H7tSeSoIOCexxgAADfrpWxxvcKKKKYjl/Gvgqy8YaaYpAsV7GP3Nxjp7H1HJ+n5g+BXnhC/wBH8aWnhu6cB7iaII+5vLk3HAPTkZ46djX1LXnfxcsZY9DsfEFjAn27SryOUT8ZSPPoeo3+Xxz+WaxqQTVzanN/Cd9a262lnBbKSVijWME9wBipqp6TfjVdGsdRWMxi7t45whOdu5Q2M9+tXK1RiwooopgFFFNlljhieWV1jjRSzuxwFA6knsKAHVV1LUbbSdNuNQvJAlvboXc59Ow9SegHckVzWq/Enw/YSfZrOdtUvmIWO3sVMm9iOPmHy9cDgk89DXBeMP8AhJ9f0G61zxDANM0izG+30/OHlcsQu4HnPIBJxxkgDJznKol8OrNI023rocrb+JbnTtVvvEUB8i9vJ5HhQKCFLkknB6qN36fjW74A8GSeL76bV9Slf7EkpMjEnzJ5jyfw5yT7/iPP9OL6/wCIdPs55PK+1TxW+QvEaswUYHYDPT9e9fV2madb6Rpdtp9ou2C3jEaDjJA7nHc9T71hTpcz943qVOVWiS2trBZWsdtbRLFDGu1EXoBU1FFdZyBRRRQAUUUUAFFFFABRRRQAUUUUAFFFFABRRRQAUUUUAFFFFABRRRQAUUUUAFFFFABRRRQAUUUUAFFFFABWdreuWHh7S5NQ1GYRQpwB/E7dlUdycfzPQGs3xZ4z03wlahrnM93ICYrWNhubrgt/dXIxnn2Br528R+INR8S6pJf6hLukPCIowsaZJCgen556k1lOoo6Lc0hTctToPGnxP1TxJJLaWTSWOlklfKVsPKuCP3hHqCcqOPrjNcFk56+1ObPGTTSM+/uKwu3qzpUUtELnj69gKQcfWhhg/T0NA3Y9BTCwbicbuDS+VvO7p7k08uu0jYCx7mmD65P8qAsKG2rhSSaQu3cjPqaQueB1+lRMwJwRg0JATKfmUY3Hrx0pG2hvf0FRqc/KPxqcL2J49DTegEe5gMDA96PmJwOtTCIt0b8qnS3AXv8AnU8wzrvBekeEId174t1SF+0dnH5j88fMzRj8MA/nXr0PxJ8FQW6RQaokcMahURLWVVVRwABs4A9K+dPlj45B9zSBl/vH6hqcZuOxEoKW59G/8LR8IeYF/tRtpGd/2aXGfT7uaoXXxi8L29y0MQvrpQAfMhhAU/8AfbKf0rwFpHXLbjjHcZqGKUyMz8Yz3FV7WZPsonvv/C6PDmMmy1Uf9sY//i61LT4peErmKNn1B7eR/wDllNA+V+pUFf1r55jRWPK5+ppQijP8PfB5pe1kHsYn1bY6lY6nEZbC9t7qMHBaCVXAPocGm6rYjVNHvtPMnli6t5IC+M7dylc479a+WbbVLvSbjz9PvJ7eZl2l7d2ViOuCRyRnBweOBXqnhH4uQwaBMviJ557y3ZRF5MeZJkxjnouQepJGc1pGqnpIiVJrVGt8IdSkj0vUPDN9KBf6TdOnlZHEZPOCPvYffz2yvqK9Ir5ytPG39lfEe58T2Vi8OnXsnlzxyxkkoxUuV5xvO3cOcZ9q+hLC/tdUsIb6ynWe2mXdHIvQj+h7EHkHiqpyTViasbO5Hquotpdg1ytjd3pBwIbWPe5/DI4rno9V8balEDbeHrDSzw2/ULwy7lPYLGAQfrXXUVTTfUlNLoce3h7xhdIwufGYhWUHzIrbT0GwHqEcncMdAevekPw20e5lD6re6tq+1dqLfXjME+m3B/WuxqtqGoWmlWE19fTrBbQrukkboB/Mk9AByScClyR6j55dCpBZ6N4X0uaSC3trCzhTfK6JjhR1Y9WP1ya8p1rUNU+LWtpo+kReRodpJ5j3Ein5jyBI34E7U6nkk/3Yru91v4s+IhZWaNa6HbOHO8ZCDJw7+rkZwuePXhmr17RNDsfD2lx6fp8QSJeWY/ekbuzHuTgfkAMAAVmv3mi+E0f7vV/EcpoXwl8O6Lfwag7XN5dw7XVpXCosgIO5VUDHI6EkfWu8oorZRS2MXJy1YUUUUxBRRRQAUUUUAFFFFABRRRQAUUUUAFFFFABRRRQAUUUUAFFFFABRRRQAUUUUAFFFFABRRRQAUUUUAFYXivxRZ+FdHe7uGDTuCtvD3kfH6KO57fUgFfFHimw8K6Ybq7YPM+RBbq2Glb+gHdu3uSAfnjXdd1DxFqsl/fSeZK3CqOEjXsqjsBn69cknk5VKnLotzSnT5tXsVdR1K61e/mvb2Yy3EzFndz+QHoB0A6Y4rOaPJOOeevpVoIo65J9qY0eWHOB7VyXOtIquqAAcGoWQj7x47Ct2y8N6vfxGSx0q+uIidvmxQM6k/wC8Bius0z4N+Ir2TdfG30+PcA3mSCR8dyAuQe/VhVxTewm0t2ebYAwen86aTj1/Ove7X4I6CkKfa9Q1CaYffMbJGjfRdpI/Ouqsfh/4S09GWHQLJw2Mm4j888ehfJH4Vqqcupm60eh8v2lpdaldC3s7Wa5nYZEcMZdjj/ZGTxXQ2nw68XXtrJcx6FdRxoSCJgsTcYPCOQx4PYdq+kdR1XSPDWnI97cQWVrGoSNAMcDgKiDk4HYDpXjfjP4qXuspNYaMGs9PbCtN0mlHORn+FT7c8deSKJKMd2KM5S2R51e6TNp4VZZoGkP/ACyRiWH14wPzqqLVnXJUYqxvyx6lu9KAckA7axuzUiWJQuMEfQU/y1AACc9yTTC+xiWZm/Sk3ls7VO4nvTESldvzYCimeYz5C8n1qIrJn94/HoBThMjHBxtHGBTsFydLdvvs1SFB0J49hUaOG+6G2iopC7A7eMdcmlqMJWCsVLD8KWNGIJ8sEHj0qJQdw3JknvU2JAQoIPtmmA474R95Rz0BzQp8whmY7VGTmn+WAvzfexzSKASrBfl71IxQu8hgm3J+Xiuk8EeEh4p8RCyllMUCRtNM6Y3FQQPl9yWHPpn6VT0TRb3xBqsNhp8RkmbqTwsa55Zj2UcfXgAEnB+g/CPhe38LaOttH89zLte5lJzufABAOAdoOcA+p9TV04uT8jOpPlXmX20LTG0P+xWs4zp3leV5B6bfr1z3z1zznNeXBdU+Eet5Hm3vhe8k59Y2Pf8A3wB7BwOxHy+w1Be2VtqNlNZ3kKzW8ylJI26MK6JQvtuc8Z20ewlhfWup2MN7ZTLNbTKHjkXoR/Q+x5FWK8D/AOEiu/hv4q1K00gm60YzlWinU4VhjcQc/eGCue4Az2x1s3xw8PpbEw2N9JdbAREVVV3Y6Fs9PcA/SpjVTWpUqUk9Dvtc1yw8O6VLqOozeXCnAUctI3ZVHcnH9eACa8eY+IfizrYABtdGgkOOD5cYB6nkhpdrfr2BNN0TTNd+KetnUdWnKabAxXcigKgJyY4x3bpljnAxnPAr2vT9PtNKsIbKxgSG3hUKiKP1PqfUnk1OtX0K0pepBouiWPh/TI9P0+Ly4U5LH70jd2Y9ycf06ACtCiitkraIxbvqwooopiCiiigAooooAKKKKACiiigAooooAKKKKACiiigAooooAKKKKACiiigAooooAKKKKACmuGKMEID4+UsMgH3HGadRQBx+r3fjywR5bSz0e9jXPyxLJ5mAM52lh+QJNclc/Enxdp5j/tDSLa0D5Cm4tJowxHXGX56167TZI0mieKVFeN1KsjDIYHqCO4rOUG9maKa6o8kg+Md5Gz/adJtpVwNnlzNHj1zkNmpJPjPIYm8rQUVyp2s13uAPY4Ccj8R9a6jXfhpoGssskUR06VIyg+xqqI3oWXGDg+mCfXpjyzxR8PtV8Mo1yyJdWO7H2iEfdHON69V+vI6c5IrGXtY9TWKpS6GHrWr3uvajLf39xulcnAwxWNc5Crk8KM9P/r1nlMj74A/3anGNpGcDHQ0+wsBd6jaWSgL9olSJTg8FmAB7+tc92zoskd74E8H+H59AOt+JnRIpZjFbiefyI2AA5BBGTkMOuMA8enfWNx4B0x43s7nw7BLEuFlSWEOBjH3s5Jx3Jrh/ihfw2FppfhW0XdBZwpIzFhkEKUQH3xkn/eFeZtjH3G+gArbnUHZIx5HPVs+lx4r8OHp4g0o/9vkf+NZh+JXhIEj+1Tx/07Tf/EV8+gqq8Ar7EUHaTyVHfg03iJdhewj1Z7bJ8X/D6OVW01KQA8MsceD+bg1kah8ZXxKmnaLk9IpLif8AVkUf+zfjXliodud34ijDFcKx/nUOtMtUYD9V1HUtbvWu9QupJ5iMbpDnaM5wB0AyemMe1U/sxOct+JqwN+MkJ656Gn7/AO8p+oOayuzSyKgtcn/WAH3py2jYwWHPoKs70zjcPyINOaMAsduM9x1ouwsikbKMNnJz/vUotIx2fOOMGrJXnmQ+nNIWIxkYPqDmnzMNCq9rCfusQ3uagGnqBy2Tn0q8DG52g5NHl88EjvgU+ZoVkUfscitgSDHXkVILaTPIUnFXe+WANIAGwFOenFHMwsjNkgkAG5cCkRTHg9+3FaWw/wAXzA9jTDbx7sj73oafP3DlILSwvdTu1htbeW4mPIihQu5H0HPFd3oPwn17ULhP7RjGm2pXcZHZXc5HQKDwfrjH6VreEfiRpWgWUenS6B9nRU+eezYMZXzwWDYPTPO4njpjp6tpGtafrtkLvTrlZ4jwccMp9GB5B+tbU4xl1MKk5R6EGgeG9L8NWRttNt9gbHmSMdzyEDGWP58DAGTgDNa1FFdKSWiOdtvVhRRRTEeU/FLw26efrFtbj7M8P+ksmMq/QN+OQOO49+fHrfSLi7066uorK7migUvJLCCQmF43+gHUn2FepfEPXLnxb4gg8K6MryRQTETkL1lUkHr/AArz7E/QGujTxX4W8AJB4dSOaWSGNRPNbxKRv7lzuyWPXAzjOPauNxjztp2R2KTUEmrsm+ESWg8BwSW03mPJKxnXPCSAAY/IKfxrvK+d/D3iXS/Cnj+71XToJjo1yjI0LD95GCQx2AdQCoxnnHHvW9c/GfWZbyRrDS7OK0z+6W4DtIR6khgB9Me3PWtY1YxjYxnTk5XPaqK8A/4Wj4sW7M7X0Wzfv+zm3TZjP3c43Y7dc+9dlpHxisZlRNW0+a3c7V823IkQn+JiDgqPb5jVKtBkulJHptFUdM1nTdZt/P069huUwCfLblc9Nw6qfY4q9Wqd9jO1gooooAKKKKACiisjWvE2laAFS9uc3MmPKtYhvmlJzgKg55IIBOBnjNJu240r7GvRTIXaWCORoniZlDGN8bkJHQ4JGR7Ein0xBRRRQAUUUUAFFFFABRRRQAUUUUAFFFFABRRRQAUUUUAFFFFABRRRQAU2SNJY2jkRXRwVZWGQQeoIp1FAHlni34XO80t/4dEfzkFtPbCgdcmNicAdPlOAOcEcCuT8HeHNUuvGlrE1lJbtYSrPcechTywCCOvUnjA79ele/wBRXJnFrMbURm42N5QlJCFscbiOcZ64rGVCLd0bRrSSsfOvjS7e98ZatJJuUpcvF06hDtHb0UVhjJPDIefTJrb1/SNe0++uLjWbKaOSSUvJPs/du7Zbhh8pzycA8c8CsYlWBDgE+61xyvfU647aDCXxgRE49GoByeQ3vkZp22PPy7c+1KUGMZK/iaVwIA0JPLDP/fJqYKdvyE/id1MPG3963/fIoMC54JB9lH+FADgJASCFb/x2lP0dQB/dyP0piw8/LIw7cj/69Hly9DcDHunNAEqfNnA3D2OaFVYzwSuB0BqFonLHiJsdNw5/nSqZ0JGMj0Dg/p1/Wiwrj/Mfd91ZF46nBppZC2Put2B70iSgfLJDKnbOzcPrQ01u2QJR16FSP6U7AO8s4I79qAkgXIJK46GmMAzAwtG3skuPxxTyZgAzJ/wJfl/TvQFwjkVjtBxk4wf8akMQIUNweue9Rlo3z0Ld+efypgkjBCJctjspwQP0zSsFyUkIo3tx/ePUVExV8FX5HORRsK/PJu9RuOR+Y/rSvHl9w4PoRwaLBcaQf4sZ9jwat6Vr2oaDqK3mm3LQ3G0oTwQy8ZUgjnOAf161WI3RnHrz61Fs/hkHTPPrTTsG59F+CvGFv4s0oSMI4dQi+We3DDOQB86jOdhyOT3yMnGT09fK+l6nd6JqC31hO8E8eG3K7AOoIO1sdVOBkH0r6T0HX7LxBolvqdrLHslADoHBMUnGUPuCce/HrXZSqcys9zkqU+V3Rq1w/wASfGH/AAjukfYrNwdTvVKoFYhoUOQZOOc54X3552kV0niLXrTw3olxqV46hY1PloWwZXx8qDg8k+3HJ6A15n4E0Gbxnrtz4v11PMgExNvEwO1nB4xnqidB1yfocupJ/DHdhTivilsjjILm58JWySQkRarcpu3MnzxRsOgJ6E+v19qwZZPMlMkjFWflu+T617f4k+FNnrt5dagmq3qX08hcmYq6Ac4UAAEAcAcnAHevIdb8N6t4Wvxb6pb7S5PlSqcpIoOMqf1wcHBGQK5XSlDc6VUU9jNMOUwCM+4qzbkcwtyR0x6VAW3E4Y/THapkiYjcjlXHNSykEqFTygI9RTAgVhsc7e4681Ydm8sOpyMc+x96qFuvmD5uxHUUCZr6HrN/4e1KO/sZAjqMHIysi91YehwPT2Oa9w8K+OtN8TKsGfs2o4JNsxzuA7q3Q/TrweMDNfPMbsAc/QH2qWC8ktp0lhkaKeNwyMvBBByD7H39quE3DYiUFM+qqK8KuPiv4jms4YYntoJEUb544gzycYOQcqOx4HUcYHFcpfa3qWposd9qN3cxht4jnmZ1DeoBOAeT+dbPER6IxVF9T6grhde+KOlaReTWVtbT3tzC5R8fu4wwJDDJ5yMdlx714lPfXV1HCtxdSyxwLsiEkhby1HAUZPAHpUDfMnyEj3P9KiWIb2LjRXU7zWvipruoCSO08rToWyAIvmkxjBy5/mACPWtf4YeGJr2+l8SaqjSqCfsxnBZpJCcmXJ646A85JJ6gVyvgDwr/AMJLrqpcRt/Z9v8AvLg4ID+iZ9T39genFfQccaQxJFEipGihVRRgKB0AHYVVKLm+aRNSSiuWI6iiiukwCiiigAooooAKKKKACiiigAooooAKKKKACiiigCjeazpWnTrBe6nZ20rLuWOedUYjpkAnpwfyq9XN+J/BOk+KA81yjx34h8qG6R2zGASR8ucEZJz3wTyOo8d1nRvEnga8mhiu72C0kcFbq1d445uu3JU4DYByp5GDyRgnKc5Q3WhrCCls9T6GorwPTPih4k09gJ7uO8iERRY7mMcHsxZQGJHueRnvyOih+M8ojRZtCRpcDey3RVSfUDYcfmfrSVeA3Qmj1qivPV+MGheUrNYaluwMhUjIz3AJcZrUi+JvhOSKN21F42YAlHtpSVJHQkKRn6EirVSD6kOnLsddRXMWnxD8KXlwIYtYiViM5mjeJf8Avp1A/WtSDxJoV1MkNvrWnTSudqpHdIzMfQAHmmpRezJcWuhp0UUVQgrntX8EeHta8x7nTo45n3EzQfu33N1Y44Y55+YGuhopNJ7jTa2PI9X+EFzEkkukagtxg5EFyuxiuOm8cE9uijnqMVwmp+HtW0UN/aOl3FsiEAyFMx5IzjePlP4GvpeisZYeL20No15LfU+V8Ky8SEZ9CDSmLII3n6kV9Fa34O0LX973tin2hgf9Ii+STOMAkj72OwbI9q4DVfg/dQI8uk6klwQSVguE2MVwf4xwW6Doo9xWMqElsaxrRe+h5kYWXq5+oUGkKtxgrnr8y4rR1PRtU0gn+09OurVQ/l+ZIh2Fj2D42nv0JqioUnAY7qxNdxuzABJGPoT/AFpvzqMKQR75FKwI+87H6qKaMg5zn6qKYCtJIcYWP25NN3yED7vrnaeacTj+LHrjH+FKud2TIefUCgQwhTwRGSO5j/8Ar00W8ZAba4P/AEzXH9KtFMn5nf6bsU1gm1ifMZRnliSKAK7ohIV5ZV28KWb/AOKpvkBzj7SshznlNx/SplaIJ/D9AuaVSDyFIHYk7aLgMKTpyqow/Ff5mmjz88QNj2Ybfyp5QAgea3TsKQnoWkcgHJzxQAySRY8PJHJE394rwfY1C92rAkDLLyAOKnE4A+QEY5B+7moxO0jbGUbgeVZeBRYCvJdrkvsfAXpir+l+KtVtLUaVp5k8qaVZjCDjMoGNwOcjoPyB7U/TLG/1XUrez01JHu2cFNgJ28/eJHRRxyenWvVPilouiaZoaatIrprsmIY7i1xGZXIJZ2Uf8CORzkgZq4xvFslu0kjx/XvE+r6/frFq97NI0MhQRM3yoR8rEAcduv8AOvpjwYUPgzSRHbm3RbZVCEYzjjd/wLG7PfNfMkmmSWl9ZyXEZuiqi7uLdW2sIQQSCx6EjPr6819V6PcWt3olhcWMZjtJbaN4EIwVQqCox9MVvR1d0ZV9FYu15n8ZL+2/sOy0osrXctwJwueURQwLH65wM9efSvRL+/tdLsJr29mWG2hXdI7dh/MnsAOSeBXzR4i8RXHiLWLi9uixZ3JiQtny48nag9hn25JPeqrSsrEUY3fN2KYUgYORngYp8chJ2k4B6EccfWq0MvmZIBCx9fSkSVRKRjk9DmuY6bksiNAxZSRGx+Y09oUIDqPwPelhkWaJkfrnbiolJimaNufQ5pIHqJKjx/OFz6jt/n9KhMiuVBzxyM9KsPIVG1ySp6H0qFlAUfxbuBtGTTESq4cYVcUm0KxwCzdcGkt0aJG3kBc7uvIFTRjfyOB7ioGhANygOAzeg6Cp9M0+71TU7extY/NnncIqgHA9z6AcknsBTNgGT+ZFezfDLwfPottLq2oxNHe3SbI4mJDRREg/MOzEgHB5GB0ORVU4c7sTOXKrnUeF/Dtt4Y0WOwt2aRifMmlY/wCskIAJx2HAAHoB1OSdmiiu9KysjjbvqFFFFMQUUUUAFFFFABRRRQAUUUUAFFFFABRRRQAUUUUAFMlijnheGaNJIpFKujjKsDwQQeop9FAHl/jb4axNBJqPh+32yglprNckOOTlB2PP3RwR0wRhvJnheF2jKPFIrYZGXGDnoQeh45zX1TXA+M/h3Fq7TalpQWK/b5pITgJMecn2c+vQ98ZJrmq0esTopVraSPEiOfni/wCBp6fzpF3H7kgYDse1WpYHhd4XR4pUYq6OMFWB5BHYg8EdqrsgBJYduoPP51ynUMLsD8yHBPGDkUgZWb5WB46ClO7aCpV/TJwfzqJpowQkwdD2LL+HBFNITLlleXmmyO+n3k9rIwIZ4JDGxHflcegrZt/H3iuxg8mLWrjbuzmVUlP/AH06k44rnfLdQCrZH+1/jSIecMcHP8XT86abWzJaT3O7s/ix4otYdk32K8Oc+ZNCQ3sPkKjH4d+tdl4b+K9hqc4tdXgXTZSFCS+YXjduhB4Gz15yMZyeOfFVG30V+vynrTjuI+YZ+lWqs11JdKD6H1XRXz54c+IGt+HfLhWcXlipANtcHOwcDCt1XgYA5UZJwa9g8OeNtH8SJHHbziG9ZctaS8ODznaejdCeO3UCumFWMjnnSlHU6OiiitTIK5vUvAPhnU9zSaXFDIVKh7bMRBOfmwvyk89SDXSUUnFPcabWx5Tq3wc/i0fUuOP3d4Mc85O9B9ONv41y2o/DfxPp3mEWX2qKPB8y2kEmc+inDnr/AHa9/orJ0IM1VeS3PmO60XVrCETXem3ttHnaHmgZFJx0yR7Gqa7sYyfc7c19UVXvLCz1GIRXtpBcxg7gk8YcA+uCKzeG7MtYjuj5iLgdWx+OOKimKPgIASOck5r6OuvBvhu8h8qTRbNFznMEfkt+aYP4Vi3Pwp8Mzyh4o7u1AGCkM5IJ9Tv3HP49ql4eSK9vF7nhRYgAdSPQUi5ONqHJ969/j+GfhRIlRtPkkYKAXa6lBb3OGA/IAUp+GnhEgD+yehz/AMfMv/xdH1eYe3ifPzD5sM3fotMwq8nOPVv/AK9fR9r4F8MWZJj0W2bIx++Bl/8AQiefetWy0nTdNZ2sNPtLVpPvmCFULfXA5qlh31YnXXRHzJZWd7qcxhsLOa5kA3FbeNpGAz1OBwORXXab8J/Et4SLuO3sYwwBM0wdip64CbgcehIya95oqlh11ZDrvojmvDPhHSfBtjLJE++Ypm4vJyAdoGTj+6nGcfmTivFfHHil/EfiR9QQE2NqTDYBXO1iDnzCD68MRjpsB9a9E+L3itdL0b+w7aUrd3qbpsKeIOQRn1Yjb34DdOK888AeFG8Wa6ouFVLK1CvcEIfmXP8Aq8+rc/QZx0qav8kS6eic5FRvDt1Z+FJtf1OKQLf4igckZct8wPHODt+mBXZ/CPxaLKQ+Gr+VUhkYvZySOflcn/VDPGDyR759RXd/EDQbfVvAd/ahAhtITcW4QYCtGpIAAwORlfbOe1fOcMrrIsiEqQN6kHkHORUtOlLQpNVY6nbfElblfG17Fc3T3Cja0Jk/5ZoRnYB6DPb0zyc1x80GVQgZYDr0rc1e+l12GHVZ52luEVLa4DjnIHyv9Gz/AE5rMMaNtcHjGKyvdtmlrJIp8pE3HT8qgLuHVRtAJyKuSIGST2GAaqOoYDIxVLUllmJ2WTAKAE/rSXQJlBXDBTu4NQuDFIuCQCM/Q+lTebkZON2OMUASiVJVx3qDf5M4XaQr9j0zUXmPv3IMYqfIlUBhnI69qVgJPMOcn5h/Kp0IIPofWqJzGRyN36GpFJDZH3D1HvUtDubWhahHpWuWWoTWwuIreVXKHOeD94cj5h2zxmvpGzuor6ygu4CTDPGsqEjGVYZH6GvlosAAVfIHUeleqfCnxVEiyaDezhdzeZaNI/BJwDGMnrnBAHXLfjtQlyvlZjWjdXPV6KKK7DmCiiigAooooAKKKKACiiigAooooAKKKKACiiigAooooAKKKKACiiigDmPGHhCx8R2EkxgcahDExhkh2h3ODhDuwCCfUjGTgrkmvBLy2ntbqWxvIJILmFtssUgwy/4jngjqMEcEGvqKsjWfC+ieIGR9T0+KeWPG2UEpIAM4G9SGxyeM4rGpR5tVubU6vLo9j5vCLtO3IPrTJFZ4yjEsvsccV6R4o+F95ZTS3ehqbq0OW+zlv3sfqBn74/8AHuQME8155LE8MkkUgZJUYq6ONrIR1BB5BHoa5JRcdGdUZKS0K+xUwoYxtjgA4x+FN2yjriTt6GpSFyRjHtio9mDkHHf5KVwsJkA7ctH6Bh8v68UvK7cjjsR0pykgffx2+YVGUYcrwcdUOM/hQA5grjv7GkAkXBBY4OQQcMKaFkUbsZz2A5P4dKDMoCmQAEHv6/40wud34a+KmsaUUt9QU6jag4JlY+cg9nOd3r82T7gV634f8V6R4lg36fcjzgCXtpcLKg45K56cjkZHbOc182FQWyOffHNSxeZBIk0DOksZ3JIrEOh9QfUYznrmtI1pRM5UlI+qaK8U8O/FXVLApBqcf9o2oIUyH5JkHA69H4B6jJJ5avVtC8RaZ4jtDcadcCTaB5kbDDxkjOGH58jIODgmumFSMtjmnTlHc1aKKK0ICiiigAooooAKKKKACiiigArmPF/jrSfB0C/bS8t1IhaK3jxluuCSegyMZ5+hxU/inxdp3haxaS4YTXjAeRZRt+8lY5C8dhkHn27nAPzprc2seMvEV1e3LS3csMJmuEiQBbaJT8ypk8quevc7jz945TnbRGtOnfVlPWtcudd1m71O7Z908hl254UfwqD6AcCvpH4f6TaaT4K0wWqMpuoI7qYuclndFJ/LgfQfjXzEjIlyp8lxa+buAAyVAP3c/Svq/wAPavYa3osF3ppjEG0J5aEfuiAPkIHTAxx6YqKVuYutexqV80+OdDk0XxffwPGkccsrXFuIxhfLckqAPblceoNfS1cB8VPCw1nQ/wC1LaJDe6epdm4DPCASw9yOoH+961VaN43XQijK0rM8LgvHsgXTlZEMMwPdD1x75AI+lWYJQYvUelUNpJYLzzuFOEnkEYGV7A8fhXGdhebDK/qV2jrVAjI2+vXPU1eSQOqsOCP0qrKm30wec9zTTJY2Rcwq2M4yvFNjCyA5+8vTNKMmJlC8g7vwpi5WQZPNUhDRlZN20gdDT4nCbmx8rNhhjofX6VYyHZlYH5uPrUBR7Vm80b1xjOeq+tO9wHvskXb1zTY2kX5ckYGACfvCoQpRht4jPTnp6Ee9SPvkcLv2sPT+L/aFICzGQ3QtjPIqxE0tvLHPBI8ciEOrKSrKw6EH1GAayrd7iK8KyHjsT3rURt/r71LVmNH0X4O19fEfhq2vSxNwoEVzlcfvQBu6cYOQePWt6vCPhz4l/sPxCLaZnNnfFYWGQAjkgK5z+R5HBzzivd67aU+aJx1I8rCiiitCAooooAKKKKACiiigAooooAKKKKACiiigAooooAKKKKACiiigAooooAKxde8KaN4kjxqNmrTBdqXEfyyp1xhh1AJJ2nK56g1tUUmk9GNNrY8R8S/DPVNIZrjTA+o2fJ2ov72MZ4BUZ3cY5Udc5AFcGVViOPf3r6qrg/Evwwsdb1Q6hZ3h0+WVt1wgi8yOVv72MjDHuQcHrjOSeepQ6xOiFfpI8SC46ScdMHmmMr5+UDHqK67xD4B1rw/5kpiN1ZLk/abcE7RycuvVeBk9VHHzZrl9p27htauZpxep0RaktCIOyrlsjPr2/pSkiVGBw69D3/CjnJOCD+lOwjtlkRj+ZpXHYijjESFYztXPQ4IB/GhnuEyWjV19U6/kasFV6AyAdMZzUDb0Y7QjD05Bp3uIfBP5o+dCAezcEfSpba+vNOulnt5ZopV5SaFirj8Qfz9fSqrNuTds2tjoSOakiKlNqFlbrt4I/DJpiuemaD8W7qBVi1u2N3H/AM/MACyfivCnkgcbce5r0jRvE2ja/uGmahFO6Z3R8q4AxztYA45HOMV82t5iAMyDOf4TtJ/xponjbh8o391zj+daxrSjvqZSpRltofVVFfPWjeONc8PbfKv2uIOF8i5YyooAwAOcqAD/AAkdB1Fek6R8VtFvSkWoxTadMRklv3kZOcABl59+VAHNbRrRe+hjKjJbaneUVBaXtrfwedZ3MNxFnHmQyB1z9RU9bGQUUUUAFYfinxRY+FdLN3dnfK+Vgtw2Glb09gO57e5IBTxV4rsPCelG7uzvlfKwW4YBpWx79AO57fUgHyG4tNS8Q2l34y8RzpDZRqfJVvlM3GViiX+5k4znJ5PrWVSpy6Lc1p0+bV7HJazf6hrmqvdzo8t9eSZjiUMT8xwqoM+vygZNd1q+jnwD8PLbS0bbqutPm/Y4OIwvzRg+gLKMjrlj3xS/Cfw7JrmtT+J9Qija2t3KW0bcgTDBBA9EBwPfnqK1fjDpsi3GmavvJh2tasuQArfeXH1AbP8AuiseVqDkbuSc1E8paFCnA244UD/PStHwx4q1LwhqDyWUgaJ/leGXJjcdsjI5HYg9/qKpA4cjjCjv/n61HKjTK5/4EmO2OKwTaNGk9D6X8PeJNO8TacLuwmDFQBLEfvRMRnB/x6HBxWvXy5pGqX2kXq3en3MlvdJydpwHXOcEdCDxkGvU7L4w240N5L+yzqytgW8OVjkXru3HO0Dpjk9+mcdcK6a945Z0Wn7pz3xA8CS6Ley6rp8RfTZ3LOqr/wAe7E52kAcJ6Ht09M8DtVlcFcDbXuGm/FPw9qsJt9ThlszJGRIssfmxNngrkDJyPVQK5Pxh4P8AD7pLf+GdWsjITmSyS6VgR/sc8HPY+vGMAHGpCPxQZtTm/hkjz037xQbGhtmRoxFvEKh1Gc5+vv1NQh1O0n5uOtPmWS2PlzxMn++COP8AD3qvnGNmNvastzS1ixHJJbLK8DsDIpjYZx8p61TQHJJHPerStt5PHvjFMKADcBgd8U07CaHyZeNZP+A08OZECuM7ehzUZ3mPC/dBzjNRbtuAR26e9MRHgb23AHD8bux9PpU0hARQcZ6gg9D/AIUjEl8jqyc+lO4K4HPuRQDH/LKoBGGqTcqYH8S/rXR6T8NPE+qpbzJZww206CWK5knQLtIyOFJbnjt6V01l8GtUdyL7VLSFMZDQq0pz6YIXjr3qlTk+hLnFdTz7buAPfr719BeBtc/t7wtbTN5hngAt5mkbcWdVHzZ75BBPuTWJpvwl0S1ELXtxdXkiZ3rkRxv1/hHzDt/F2/Cu20/TrPSrOO0sbeOCBBhUQfqfU+pPJralTlF3ZjUnGSsizRRRXQYhRRRQAUUUUAFFFFABRRRQAUUUUAFFFFABRRRQAUUUUAFFFFABRRRQAUUUUAFFFFABXKeIPh9omumSdYfsV6+WNxbgDcxycuvRsk5J4Y4xurq6KTipKzGm1qjwjWfhp4g0hWlgiTUIATzbZL4yACUxnJz0Xdj14zXJbTzxn619SVj6z4W0bXlY31jG0x/5bp8kgwCB8w5IGehyPauaeGX2TohiH9o+ciFAwOP91sU1o128b1PqOa9Y1H4PQuXfTtVdcIdsd1EG3NzwWXGB0/hOPfpXJ3vw58U2bShNPS4ijGfMt5lIYYzwpIY9xjFYulOPQ2VWD6nGsJR0ZD9BTFYfxYz6jgVevrG7sJlhv7S4tZWXcqzRsjEeuDg44NVWVSeG59agslj2OFicAv8AeU5pWBJYOhdenQVVKE/xNj3Wrcc6kBZBt/2+D+dMRH9kikXascqf7v8A+unPDOCFVt2OgkQZ/Mf4VLsk4LkgE4BQZBHbnFOaLA/1mfq2KAG2l3e2EwnhaSCUAgTW0pRxn3GDXTaV8R/Emk7l85r+H+7do0hB9Q457dyR7VzTMzLhGVQOcjvURDk58w/gKak1sJpPc9Zs/jRpjCT7fpN5bsD8ohZZMj3ztx+taF38WvDselG5tBc3F0VOLTyirKcH7zfdAzjJBPXoa8WMe1/MLcAYBJ5FTafZXOt6nb6dYxM09wwQE5IXnljgHCjqeK1VaZm6MDS03X7TXPFa6l4je7v3aT5LC2jMjHnKooJ+5k/d6mrnjDxkfHus6V4b06B7DTjcxwgTxgOJWbZllB4CgkBQfXPbHoK+HfD/AMM/CV3qhitrjUYVaWO6uolLtOVwqIQNyqWHAB4yST1Nc9ZfDwweBn8S3E7t4nDf2zHcbCSrgeYIipODkjk4zuPcDm1BojnT1PVtK0230bSbXTbRSILaJY0zjJwOpwBknqT3JNeW/GbVpGu9N0VcpEoF3I/GCSWQe/AD5+vtXp+iaiNX0Kw1IBV+1W6TFVOQpZQSPwPH4V5Ncafc+OfilqsllIfs1gmxZJhmPKjYEHBGGbew9smrqv3bR6kUl7130POgwDN05Yf/AK6fBkBcnIDH8s1r+LfDkvhfXvsM0kbrLEs8ZiGAoJI24xxgqwHtjvWHApjdkIym7jHHBrjaa0Z1J31JJIQ8SEEb0HX3H/6qjQuVEiAq6c4Hr6ipYcozo/OGJB9jTWh+8Y2CyA8e4POD+tAHWeDPEHh+2uxb67o1pNvYKLiSMERgnncmCD16/wD1zXs8PhzwzcQJNBo2kyRSKGR0tYyrA9CCByK+bB5Vw3TbIp5XHQ/571teHfFWq+FLvfZTMYCxaS0nYmOTOMn2bgYPt3HB1p1FHRoynBy1TPdr7wf4fv8ATZbB9JtIopOcwQrGyN/eUgcH/PSvKvEnwj1LTmludHkN/b8t5Y+WZByenR+g6YJJ4WvQfD3xH0TXpY7ZmexvHwqxXGAHY9lboeeBnBPYV2FdDhCaujFTnB6nyVtCblZivOCD1FNadMgBgef4RXq/xU8KC3vU12ytsW83y3nlrwj54c898+mMjnlq80kt48fIAG/2q5JR5XZnVF8yuip5ioTtB9M9qYvCMcnnjFWfIkLBU5Pdugq1HaBDg/MT0FTewWuUNiBI25yOKeo3OSMgdcU+4RY32Jn1+tMXAHGCfvDHrVIk97+GfiaHWvDyWD+VHeaeqxGNTy8YACvj9D15GeMiu3r5v8FaxPofimxuYJIkW4kWCbzuE8t2G4E9scHPbHORX0hXXSnzROapGzCiiitTMKKKKACiiigAooooAKKKKACiiigAooooAKKKKACiiigAooooAKKKKACiiigAooooAKKKKACiiigAooooAKKKKAGSwx3ELwzRpJFIpV0dQVYHqCD1Fczqnw78M6oHJ08WspUKJLQ+XsweoX7mfcrXU0UnFPcak1seUXnwZOJWsdYUnOYo57f8gzg/qF/CsC8+E3iW2h8yJLG7ckL5dvOVbHr84UdfevdqKydCBoq0z5ubw34mspnifRdSbYSDi1aRePQjII46j9azjPszvtog5OcsjL/hX1FRU/V+zL9v5HzVZ6ZqOpRvLZaVd3MQPLQRO6g46cAjOD0681KnhrxFcTJFHoOpb3bape2eNQSe5YAD6nAr6Qoo+rruL277HienfCPXb1oX1K6trOJsl1DeZKv4D5T9d3FemeGfBmkeFFlNhG7zy8NPOQ0m3+6CAABx0A575roKoa3qkWiaJe6nNtKWsLSbWcLvIHC5PcnAHua0jTjDUiVSUtDkPEyt4n8f6R4bV4vsmmhdUvA2H3sGwsZHbg85PIfOOOe+rifhpZXJ0a812/iRLzWrlro7dwxGfuDB7csR/ssOa7anDv3Jl27Hk1zrdx4T0fxZ4ftXP22C5eayCEgQ2s20/J6FNxOOxIPIBrp/hlpFlp3g62ubSYzyXw86aVlwd3TZ64UgjknnJ71wfxaszaeLY7mKN0F5ajdIc7WflCM+y7M+mQe9d78NNE1HQvC8ltqkJhnkuXlCGRX+UhRnKkjkgmsYN+0afQ2mlyJrqQ/ErwvDrOgyalGsUd9YRtL5rKcvEoLMmR+Y4PIxxuJrwsDMykdNnTtX1S6JJG0ciqyMCGVhkEHsRXzx428Lv4a8QyQR7fsk2Z7YqD8qEkbDnuvTqeoPfFKvDXmQ6E9OVnPgAzZDD7mPxp5ILKTwW+TPvSMOA+cbfm49KHUhGIwSvziuY3GXMJkUSJgSrwTjOR6U2N2lQrncw6oefxHt9atGQEg/wuPWoWhBbBc+YvKt3C+/tTEV3UlsK49dhHIrsfD/AMR9f0GO3tpHjvbGJQiwyqAVTPQOOQewzkAduK5dhvOxx84+bA/mP85pYYXZi24lPzP501Jx2E0noz1+3+Kfh/WdPns9TtLu286F0kRR5itkEbQy85IPUgAeteVy20P2iTyjILbefLDgbyueM44zjrilWNIY+Fxk04Ddknn+lE5uW4Rio7AqCNeANvTFMOFBJ69+KdznJHy9hTLj93AzbcFhUFGZK+6RnzwGxj2ozggceoGKRNrpvAzjhu1NK8byOR8v4VYhzLlflAznI9jX0v4SdJPCOkslz9pX7Kn7zIPOOV4A6H5fXjnnNfNQHy7R2r3v4a6JfaL4czd3ELx3ZW4ijiB+QMg6kgHJGOO2OvNbUPiMay907Oiiius5gooooAKKKKACiiigAooooAKKKKACiiigAooooAKKKKACiqupXh0/Sry9Efmm3geUR7sbtqk4zzjOK8svfi3qryA2OnWcKAcrOWlJPrkFfbtWc6kYblxhKWx67RXhd18SvE89x5kd8lupH+pht0Kg+xYE/rWRc+KNduJXdtYv9zk7gLl1XnttBwPwFZPEx6I0WHl1PookKpZiAAMkntWaPEmhHprWnf8AgUn+NfOO/GAFXrnpjmoixzwq/Wp+svoi/q67n0fL4p8Pwo7vren/ACAkhbhGbj0AOT9BWX/wsjwmDzqpH1tZv/iK8DJ65ABPXBzSAhlH3hik8RLohrDx6nvo+JPhI5xqp4/6dZv/AIiqPirxpCnh+K+8Pa5p32iOZJGglkXfNHyCmxsMOSPQ4Bwa8PITuPxIqdJM2rou3apDAjqScDGfpk/hSdeTVhqhFO57Qfiv4fSytpWW6knkjDTQwRk+S2ASCzbQ3ORkZ6VZtPib4dupQjvc2ylN/mTRfLn+78pPP6e9eGKOxyPrTlLmMgDODij28w9hA94/4WP4Tzj+1T/4DS//ABNX7bxh4cuohJHrdioJxiWYRt+TYNfO5YEfMpHuaCuRuV+M59aaxMuwvq8e59R0V8/6H478QaBGIYbhLq2AwsFzl1Xpjac7hgDpnbyeK9A0b4s6Pes0WqQS6bKD8pOZY2HAHKjIPJ7Y461tGvCW+hlKjJbanoFFV7O+tNQhM1ldQXMQO0vDIHXPpkd+RVitjEKKKKACiiigAooooAr39/a6ZYzXt7OkFtCu6SRzwB/U9gOpNeAePvHzeL7yPT4FWLSYJiVYElpsEgSEEAj5ei9Rk5z26LxV4i/4SvXRZ2MbXkcUht9Ns1PE1yMg3TYBBiUZAyecE8c40Na0Ow8B/D++e7txqmrasfJuLiX5i0rgsSCRnapUsO5IB4PTCUnK9tjeMeVq+56TpK2iaNYrYPvsxbxiBv70e0bT+WKuV418J/G32YJ4d1R9kbt/oUrZ5ZiB5fTAyckdOc+or2WtISUloZzi4uzOC+LOlSah4VjuYIC72c4kd1GWSIqQxHtnaT9M9q2/Auppqng3TZVI3wxC3lG7cQyDbz6EgBsf7QrY1KyXUtLu7FnKLcwPCWAyVDKRn9a80+FN5c6frWr+GrhP9UWmOMYWRGEb8gc5+Xvxt96h+7Uv3LXvU7dj1WsDxf4Zi8T6K9t8iXcfz20rfwt6Ej+E9D19cEgVv0Vq0mrMyTad0fMFxBLaXk1rcIUmhkaN14baynaRxkHByM0ijjocYxzXr3xE8FPqaHWdLh3XkS/voEXBmUfxDA5cdMdSOByAD5C6yQSNHKjRsjFZEcYKMDggg8ggjB9K4JwcHZnbGSmiPHzMNuR1X0oZ2K/L95ecDvTmQkBeAQchuuKQrzvA6HDegqBsa0aSmMEcHkHHP0+tWyVjXOMDoBVRxjquUbrgDg+vuKkwWG1nJOOtAEc0r+aP4R3OBUtqZMlWOYvvA98+n0qAswk8qU9sIc/e/H19qsQHemOeOCccmiwFgYf5uwOR71Vv5CI8KBVjdtjbHQD8qzJn3OQxHzHAoArKwjnWTkIx2sPf1qd+B0/MVCyfeTHPUgd6W3J2GNmywGVz1xVCRqaLbLfa1p9iWMf2i4jiLKucbmAz+Ga+n68i+EK6GJZjP5Z13zH8nfnPlbRnbnjd97OOcZ7Zr12uqhGyuc9Z3dgooorcxCiiigAooooAKKKKACiiigAooooAKKKKACiiigAooooAgvoHurC5t4pmgkliZFlXrGSCAw5HTr1rwTxV4ej8N6sthHeC7IiV3YLtKsSflIyecAH8a+gJZY4YnlldY40Us7scBQOpJ7CvnHXJob3XtRuof3kU11LIjFMZUuSDyM9COtcuJtZdzooXuyhtbHT9abty3U4/ClAznAHvjik4DddrezVxnUSiNQORn60wxZHIUH2Wk80jhXP1JFRvI7dZv/QaYDWB3YCrjOM5/wDrUmMH7nHrRkd5hz7ClywyVfI90oAa+1STkge4wKdvItz8uVLrg++G/PgH6ZpcuR8qD6kYFDIWRTtTOW3Mpwe2Ofz/ACpiGpxg7n+ueKk8wxDGWYHrmo9sq5KI59uDQLh8MjwNyO2OfwzTAmBYHlGOe600mF/Y/lQkziLmNmx7jIpTMHGGgl/4EM0BcGjkCnBDfX/GmFuMSLj9RTftMStgRyq3oAP5UhugG5z9HGKAuWbe4msZkubOeS2mAwssLlSM+45HXFdrpHxS1vT1SK9WHUYV7sdkuMYA3DjqM5IJ9TXn63EXIUlTntT/ALVCBlmz+BpxlKOzE0pbnuOlfFHQNQeOK4M1jIwAJmUGMMcZG4Z4GerAD1xXX2l7aX8PnWdzDcxZxvhkDrn0yK+XPtMJOcuO24jFSRXJilSeGZ1kRgyuhKsCDkEEdwQCPeto4iS3Ri6EXsz6morwLSviZ4j0tFU3P26JRjy7tNxHOSd4IYn6k/4drYfGLSp1AvdMvbeQnpEVlULxyTlT+n51tGtF76GToyW2p6RXknxP8ZTTXY8NaPIZHc+XObdmLu7ZXysDqOeQM5JA4wQdbxP8VtKs9HL6HOLq8kO1S8bKIxg/NhgN3THH49MHI+FfhsazPc+M9ZDT3Uty5tleMBM5yZRxydxYD0wfbBKXP7sRxjye9I6X4eeBz4Zs/t2oHzNXuI9rncSIIzg+UOSDgjkj6Dgc8P8AFHXrjUfEz6Skv+hWIUFAww0hGS/TqA23rxg9Mmvb6+evHlktn481WNAQskiygls/fVWY/mTU1/dgkiqL5pts53YHTaw6jI/xFepeCPiWkcMOk+IpirqRHBfN0YdAJT2b/a6EcnGCT5fwH6cgH+dPdVkiKt6+tc0JuDujecFJWZ9QI6yIrowZGAKspyCPUV5D4yH/AAifxMstZtUeKG4CzSkABHOSsqjjGSuCep+YnvWJ4R8fal4XeO0vfMu9M3Y8sn54/wDcJ78Z29Dz0Jro/iPrmk+I/CNncafKsssdwruCn7yJSpBVgeV5K+3H0ronUjOF+qMYQcZW6M9Y60VzvgXVbfVvBumyW7M3kQrbybxyHQBT/LP410VdCd1c52rOwV5t45+H4uBNq+jRMbhi0lzbDLGXJJLpn+L/AGe/bng+k0UpwUlZjjJxd0fMIUq20nHYdqjIwdwGexGa9v8AF3w+tPEAN1YtFZX/ACzN5fyTnBxvx0Of4hk46g8Y8g1bR9S0O4EGp2kkDHhWYAq3TO1hw3UdD3wcGuKdNw3OuM1PYoLtGDxz0oB2ADIwW+X/AApm7ZuPQE5NLkMBk5FZlkhwVII471AF2OQ/4P8A5/r+NSAnOGP+63r7H3pWPykYyfT3piIGLR5BZ1Un14/+tUbRxCA7yxm3/cKjBXHXOev+NPj/AHW8HAUc4z8w+nt7UpB4JxtbkL2P0pAVmJ4Qr8vYk8imkFXV1OcfkR6VMqDDFc4zjntUagq+1RuJPAHJNAjuvBHgu78TWz6lDqK2cUMm2OVQWlWVdpHAIxgHrnPTjFd/4P8ADfivSNcmutb1z7bZtbmNIPtEkmJNwIb5gAOAR+Nec/DvxI3hnxGtvdl47O/KxSq4C+W/8DnOCAMkHtgk9hXv1dVGMWrrcwqyknZ7BRRRXSYBRRRQAUUUUAFFFFABRRRQAUUUUAFFFFABRRRQAUUUUAYHirwx/wAJNZLANRubQr2RiY35B+dMjPTg5GK8n1jwNrmjWzTTWxnjTlpLf50AxnP94dDklQB617vRWVSjGevU0hVlHQ+Yh04I/A01iw6L+Zr6ckijmRkljV1ZSrKwyCD1B9q5vUfh94b1He32D7NIwAD2rGPbj0X7v6Vg8M+jNliF1R4RyeSD+VMYL/dH/fNerah8JITl9N1R1IThLmMNuf8A3lxgdP4TXKT/AA38UpLJGunpMinAdJ49rj23MD+YH0rKVKa6GsasH1OT6jGCPqKZtI6Z9ce9ak+g61apJJPpN/HFGMu727hQB3ztx+tZ4VnA2LkE7R8vf0rPbcu6exFlxk7HP1q7coLS3hRo2aaZUnLKRhRhsL09GBzn8O9TRaRdQMJ7208iJUMoF1mITDGQAGwWycD5c8E/Wqc8ss8rSOUBY5wDgAdgB2A9PagCM/MvRgfTiot8ke7cuAB/Cd36VNsdvvFDj60xsjqxHuq07gQxuX2zFCM9mXaf5mpjhVIZiWPYtnP4VEPLZiVY5HX5v6UkZkCsC3A6AjH86dxbE6uQo247deOKGkPR5CB7Coj7kUzf/dH4/wD66QD2KN82wtjnLHinLsGflC+uOKs6Xo+qa5L5WnWk90wIVjEMqhPTc3Rc++Ku3XgzxNYSCOXQr1nIzmKPzhj6puHb19OKqzaFdJ2MkEBsjCn1wM013+bAQuf9o10+j/DjxLq+SbP7FD3e9JjyeOAuC3Q+mOCM10dn8Hb8vi71S2ij25JhRnJPpg7ePf8ASmqc3siXOK6nnDMPKbJbzMjYBgKK9H+F+kXemXF94lv0+zaalm6BpFIZhlXLgY5UBTyOvbpXaaN8O/Dmjkv9k+2y5yJLzbJt6cBcBRjHXGeTzXN/FTxPKBD4U0p2a+vSqzCNwCVfKrGe+WJBPTjHUMa2jScPekZupz+7Ex9H06T4nePLnWtQhkOh2mY4gRtD4PyRnnnglmxnr2yK9D8B2h0/wlDZHbm2ubqH5c4+W4kHf6VL4X0GDwj4Wjs4oy8qJ51x5WWMsu0btvTPTAHoBVX4fakNU8KJcMV883M7TqqkBXeRpMc+zg/jW0FZq+5lJtp22Opryz4t6FO7W2vROWjRFtpU252csytn0JJU57lfWvU6gvLO31Cyms7qMSQTIUkQkjIPuOR9RVVIc8bEQlyyufMB4KM3fjj1pzO4cALkEevT/PFbHibRZPDmvXWnyBjEpLwOxzvjJyp6DnHB9wcdKxpHUbSDx6+xrz2rOzO9O6uPO2SFlwpyNwzVNzKsPz8gd1+8vsfarmeeDg9TxVO9Yh1XqCeaEB6j8J/FemWGmz6VfXHkyy3TzRyyYWIgqg257HIPXjpzk167XzHYWSJp5vJm3ws5RYh1LYDc+3I6HNdDpXjrWtFuC0Nw09vgf6LNl0VRwAgzuUAenHTIOMVvTr8vuswnR5tUe90Vynh34g6H4gKQed9jvmwPs1wdpZuOFbo3JwBwTjoK6uuuMlJXRzNNbhWTrk2gvbGx1y4sFilGRHdSqhPbIyQQfQjkVpTvJHbyvDF5sqoSke4LvOOBk9M+teK6N4S1fx3q82sai5t7GaYs8pYlnGfux5zwPugnge+MVFSTWiV7lwinq3Y2db+Fsc8P23w5eJLA6+YlvKwIIOSPLk7j7oAb6lq841DTbzSLxrW/tZbeVeqSKQSMkZB/iHBwRkHtmvpLTtPt9K063sbVNkECBEHc47n1J6k9yTTdS0qx1i0NrqFrHcQk52uOh9QeoPuKzlQT1WhcazW+p80g5Hr+FG0/KP8Ax6vRPEvwwurBWutEeW8h5LwNjzEAGcjs/fgAHoBmuBkjeGR4ZI2jkjYo6uuCrdCCD0I9DzXNKLjozojJSV0V3X5h82CPT+VRFTk+WBuzllPGatGNR0BxnrTrawuL65WG1gkmmIOFijLkjvwASR3qRjII0MT3LwsY0woDcAueit3Ixk8enWke/vZ7doZLqXycECHzCIwPQL0H0r3i08H6Re+DbDS7u1XasKyF4iysJSvzOCcHOSeGHpkcYrnE+D1mbxjNq07WZJxEkYD47ZckjPr8vOO1auhPoYqrHqeW6Nomoa5diy022M8m0uVGFCgdyScD/PWvovw9p9zpXh6xsLydZ57eIRtIvTjoB6gDAz3xTdA8Paf4a0/7Hp8bBSdzyOcu59Sf6DitWuilS5NXuY1KnNoFFFFbGYUUUUAFFFFABRRRQAUUUUAFFFFABRRRQAUUUUAFFFFABRRRQAUUUUAFFFFABRRRQBz134F8MXrhpdHt0IGP3GYR69EIz1qlN8M/C0sLIljLCxHEiXMhK+4DEj8xXXUVDhF9CueXc4eX4U+HZLaKJWvY3TO6VZV3SZ9cqRx7AVpaR4C8P6VaPbtYxX26TzPMvYY5HHAGAdo44z9Sa6aihU4rVIHOT0bOU1j4deHNYZH+yGylTA32WI8gZ4K4Knr1xngc44rzvxz8LdQ0qz/tDw5cXV5bxqTPbSbDKgAJLqQBuHAG3GfTPQeyG5uv7XW1Fk32QwGQ3fmDAfcAI9vXOMnPTjv2t0nTi+g1OS6nxwl7OfnWZyf4ucg0puZMk+a59w1fRXjD4U6H4qdruD/iWak2S1xbxgrISckyJxuPJ5yDyMkgAV4Z4o+Huu+E5UF9FHJDKcRzQPuVzgEgDhuM9wKzdJI1jVbHaJ4317w/8um6nNFGRgxNiROvXawIB46jn3rv9L+N+pKCNR0u1uBgAGFmhPbJOd2foMV46mn3hcBYHP61ci029yAUQd9vep+HZj0luj6HsPi94Xu2KzteWeBndNBuB9hsLH9O1bNn4/8ACl+zLDrtou0ZJnJhH5uAK+bk0uVcM9x16BV/+vVyHTzHEWIba56t/EfQHv8ATpR7ZoPYxZ7H4r+KlhZW81poT/a70/ILhRmKI8jI/vkcYwNpz17Vi/C3QrzUvEdx4uvo98bCURyyrtaSZiNzoMAbcF19OeO+OR8O+HZvEGuQ6fFCTEWDXRDqjJEGAdue4yABj+Rr6ItLWCxsoLO2j8u3gjWKJMk7VUYA556Cqp3m+ZkztBcqJq4vwU5sde8TaK0MUAhvTcxIhAysnTAHAAUR/TdXaVyMNpHB8WbiZNwa40gO/PBbzFX+SCtZ7pmcNmjrqKKKsg5zxl4Vi8VaP9nDrFdwkvbysoOGx90nGdp4zjuAecYPgV1bTWk1zZzrtmiZonXIO1lJBGQccEdea+oK4Xx14ITWmfWLYv8AaoYDvt0XH2jbyMEDO7GR0OflHGM1z1qV/eW5vSqW917HiJbCjqOMVTz9ouSu4ddgHp61NqO6OaRdvlEkjZyNp9MdalsLUpDmQZdv0rlW1zpLzyO6ReYfkiiEQVQBtA78f55qFokkZTk7gMhgefw9qeVAYtj2NMx5ZKA4U/dP91vSpGNZyg2XChk/vqMj8R2rqND8d63oMQiiuRdWgACw3OZFUcY2nOVGBgDO0elczzIpAxn096iVHjJaIHGfmjPY+1NNrVEtJ7n0F4Y8a6Z4mhVUP2W943WszjcTjJKf3gMHng8cgV0lfLscqyk7QVcdQRgiu30D4kavpLJDfN9vtB/z1b96Bz0fqev8WemBiumGI6SMJUOsT2uiud0fxxoOtskUF4Ibh+BBcDYxOcAA/dJPYAk10VdKknqjBprcKxde8LaV4iQG9hKzqu1LiI7ZFGc4z3HJ4IPU962qKGk1Zgm1qjxvU/hfrdrMBYmC+hLABgwjccclgeMZ9CT7V6D4S8I2vhmzzhZb+Ufvp8fjtX0XP59T2A6OiojSjF3RcqkpKzCiiitDMKKKKACiiigAooooAKKKKACiiigAooooAKKKKACiiigAooooAKKKKACiiigAooooAKKKKACimSypDE8srBI0UszE8ADqa+WxeXN/umnnd3dmdjI24lick/WsqlTkNKcOc+p6zp/EGi20zQ3Gr6fFKpwUkuUUg+mCa+Zcrv8AlkJb0CA00oS2Tj8ef06Vk8S+xqqC7n0PdfEPwpZztDNrMJZepjR5F/BlBB/OqN38U/C1vEHgubi8bONkFuwI98vtH614QuyMghQPfFDOc45+pFT9YmV7CJ65efGazSRRY6NPMmPmNxOsRB9gofP5isCT4veIZUkSO306MnIDpE5ZPzfGR7gj2NcCAMcgnPqMA0vYDBPHQVDqzfUpU4Lob97428T3yoLjW7r5CceQwh6+pjC56fhWK5a4meWUs8shLSSNyzsepJ9c880gQjkjilzgbex5wKzbb3L0WxKGII+cj2FSw3EeNiWyyMThc5+Y+wH9KrgDHPIP8I6VIlxOjfuT5WRj5T8x9qaYrXJriOaKNXlSGFmUFUP3yvrjsOO/rUmjaVqOvaoljYp5lzIDvYnConcseyjP68Ak89doPww1bVFW41OX+zoG52su6Z+nUZwuQT15BH3cV6poXh7TfDtmbbToNgbBkkY7nkIHUn8+BgDJwBWsKUpavRGcqqjtuUPB/hO38LaYI/llvpQGuJ8DrgfKpwDsGOB+PeujoorsSSVkcrbbuwooopiCiiigAooooA8H8c6UmsfEyaw0awUXBCmURkYlk272bB4BIIB9wTnJNc3PG9vM0MqNHJGdrKykFCOxHbHvXovgyM/8Lk8RtKDvC3BUEdB5qYP/AHyR+dd54h8K6X4kg23sO2cABLmPAkQeme45PB45PfmuT2TmnJHV7RQaiz56ZuCduT0PuKbhZFI6q3Q9Oa6LxL4M1bw0+6ZRcWRJ23UQJUDOAGH8JPHHI54JINc3jyjuH3c5ODXO007M2TTV0KoO/D/6xfQfeFOYEkMgG7uMdadgSrhsFexz0NMD7X2PgN2PHzUgEYJKMg4bsy8FT70hkkRMS7XXruA/U+lOblztB3dz6/WnKMrnqO+e1AAHTGccHoT0P4102i+PNc0ONYoblLm2UbVguQXCDAxtOcgAADGcDJ4rlDGVJMLBWJ5GOCf8aQP5Z+ciM+o6Gmm1qhNJqzPcNG+J2i6gyRXofT5mIA3nfGSTx846e5IAHrXZwzRXEKTQyJJE4DI6MCrA9wR1r5jWQjrz7pV7T9Yv9Ml83Tr6a2YsrN5bkBiOm5ejdTwRW8cQ18RlKgnsfSNFeVaP8WJ4lSHV7HzwMBp7fCt07qeCSfQgc9K7nSfF+hayqC11CJZnwPImOx9xH3QD94/7uRXRGrCWzMJU5R3RuUUUVoQFFFFABRRRQAUUUUAFFFFABRRRQAUUUUAFFFFABRRRQAUUUUAFFFFABRRRQAUUUUAFFFFAGX4mbZ4U1hhwVsZj/wCOGvmK2XETZBPzdK+r3RJI2jkVWRgQysMgg9iK8R+J+m2Wn+J4I7KzgtYzZq7LBEEBbe4JwAOcAc/SufER05jei9bHBZY9AeKcEcnBOPpUxUKecZPrUkULzyxxRL5ksjBUSP5mYnsAOSe1ch1EITvnBx1Jpmxi3DE/yrp7TwL4lvIxJFotxs3bT5zLER77XKnv1Arah+FXiKRFkaXT4S3VHlYsv1wpH5GqUJPoS5x7nCKkrNx2/uimMxGdqmvWLb4PReajXmsvJH1dIoNp/Bix/wDQa6Ww+HPhmxWImxNzJH/HcSFt3PdRhT6fdq1QmzN1oI8FhhuLyVIYFlmmbhYYgWY/QDJP/wBaunsvh14nu/KI0zyI5MHfPKq7c92XO4flmvd7WztrGAQWlvDbwg5EcKBFH4Cpq1WGXVmbrvojy3Tfg+MI+q6qx674rVMc9sO3/wASP613eieGNI8PR40+zRJSMPO/zSP0zljzg4BwMDPateito04x2RnKpKW7CiiirICiiigAooooAKKKKACiiigChbaLptnql1qVvaRx3t1gTTDq2P5dBnGMkZOav0UUkktgvcbLFHNE8UqLJG6lXRhkMD1BHcV5r4o+GHnTS33h8xRs2Wayk+VCcEnYegzwApwBnqAAK9MoqZwjNWZUZuLuj5lvdOvdJvWtryzkt5hyY5BgkZxlT/EuQcEHB7VCcOuOc+3UV9J6ppNhrVmbTUbZLiHIYK2QVI7gjkH3FeZ678Kru33T6HcC6X/nhOQsg6dG4Vu/Xb9Sa5Z0JR+HU6Y1k9zzdH2yYkAyejDofrVoordeDjtUuoaVqGlPs1GyuLYlimZUIVyOuD0I9wSO+arxo29E/hJC89v/AK1Y7bmvoNMS5AZtuenzdaVrYFGBY49D2q1eWs1jObe6hKSAZ2t3U9/cH16VWMh6qARnoDyPpQBC1l5YzG+B7D+lMlVwPmGf9tfT/PvVkTckZP0NIeeVxuzmgR2Fp8MtT1DT7W+07UrCaC4hEgMu5GGR0+UMOO/vmoLP4c+I7m8mtpLOOBY3KGeSUeW3Gcrj5iDng49jgg4ydD8Rap4duGk0+4EYc5eFxujkPuPz6YNW9Z8ca7rSvFc3f2e2YYMVt8iEYIIJzuIPcEkVp+7ttqRad9z0jwp4a8TaLfx/btZSXTkj2i3WRpM4GFUblG0DrwewHSu1rxvw/wDEm90bTls7q0+3RxnETtMUZV9MkHcPT/8AVj0vQ/FOkeIQV0+53TKgd4XUq6A/Xg4PBIJHvyK6aU4WsjCpGV7s2aKKK2MgooooAKKKKACiiigAooooAKKKKACiiigAooooAKKKKACiiigAooooAKKKKACiiigAqvJYWc12l3LaQPcxjakzRguo9A2MjqfzqxRQAUUUUAFFFFABRRRQAUUUUAFFFFABRRRQAUUUUAFFFFABRRRQAUUUUAFFFFABRRRQAUUUUAMmhiuIXhnjSWJxhkdQysPQg9a5aL4c+HoNVhvoYZkERDC380tEzA5BOct1xxnHHTrXWUVLinuhqTWx5f4n+HuvX97cXFpqEN1bbpJoreV2RoyxJ8tM5XHTuBn0rh7/AMO61pIc3+m3MKRgF5Cm5Bn/AG1yv619EUVlLDxexrGtJbnzJtzz69COtIyso9f519D3/hnRNS803Wl2zvKQXlVAkjH/AH1w361ymofCnTZyzaff3FoxfO2RRKir6AcN6cljWLw8ltqaKtF7nkK4Pf8ACu18JeBf+Em0uW8bUPs2ydotvk7yflU5zkf3qfqHwx1+2DNbC2vV34URybHK/wB4hgFH0BPWvRvBmhN4e8OQ2suRcSMZpxnO1zj5RjjgADj0op0m5WkgqVFb3Wc1cfCPTzGq2mp3UTYO8yKHBPHIA247+v1rI0j4XX664qar5RsY8P5sLbhIcj5RkhlPvivXKK6HQg+hiqs11EAwABnj1OaWiitTMKKKKACiiigAooooAKKKKACiiigAooooAKKKKACiiigAooooAKKKKACiiigAooooAKKKKACiiigAooooAKKKKACiiigAooooAKKKKACiiigAooooAKKKKACiiigAooooAKKKKACiiigAooooAKKKKACiiigAooooAKKKKACiiigAooooAKKKKACiiigAooooAKKKKACiiigAooooAKKKKACiiigAooooAKKKKACiiigAooooAKKKKACiiigAooooAKKKKACiiigAooooAKKKKACiiigAooooAKKKKACiiigAooooAKKKKACiiigAooooAKKKKACiiigAooooAKKKKACiiigAooooAKKKKACiiigAooooAKKKKACiiigAooooAKKKKACiiigAooooAKKKKACiiigAooooAKKKKACiiigAooooAKKKKACiiigAooooAKKKKACiiigAooooAKKKKACiiigAooooAKKKKACiiigAooooAKKKKACiiigAooooAKKKKACiiigAooooAKKKKACiiigAooooAKKKKACiiigAooooAKKKKACiiigAooooAKKKKACiiigAooooAKKKKACiiigAooooAKKKKACiiigAooooAKKKKACiiigAooooAKKKKACiiigAooooAKKKKACiiigAooooAKKKKACiiigAooooAKKKKACiiigAooooAKKKKACiiigAooooAKKKKACiiigAooooAKKKKACiiigAooooAKKKKACiiigAopCMgj1oBzweDQAtFFFABRRRQAUUUUAFFFFABRRRQAUUUUAFFFFABRRRQAUUUUAFFFFABRRRQAUUUUAFFFFABRRRQAUUUUAFFFFABRRRQAUUUUAFFFFABRRRQAUUUUAFFFFABRRRQAUUUUAFFFFABRRRQAUUUUAFFFFABRRRQAUUUUAFFFFABRRRQAUUUUAFFFFABRRRQAUUUUAFFFFABRRRQAUUUUAFFFFABRRRQAUUUUAFFFFABRRRQAUUUUAFFFFABRRRQAUUUUAFFFFABRRRQAUUUUAFFFFABRRRQAUUUUAFFFFABRRRQAUUUUAFFFFABRRRQAUUUUAFFFFABRRRQAUUUUAFFFFABRRRQAUUUUAFFFFABRRRQAUUUUAFFFFABRRRQAUUUUAFFFFABRRRQAUUUUAFFFFABRRRQAUUUUAFFFFABRRRQAUUUUAFFFFABRRRQAUUUUAFFFFABRRRQAUUUUAFFFFABRRRQAUUUUAFFFFABRRRQAUUUUAFFFFABRRRQAUUUUAFFFFABRRRQAUUUUAFFFFABRRRQAUUUUAFFFFABRRRQAUUUUAFFFFABRRRQAUUUUAFFFFABRRRQAUUUUAFFFFABRRRQAUUUUAFFFFABRRRQB//2Q==;" vertex="1" parent="1">
          <mxGeometry x="60" y="90" width="512" height="512" as="geometry" />
        </mxCell>
      </root>
    </mxGraphModel>
  </diagram>
</mxfile>
